<svg width="180" height="36" viewBox="0 0 180 36" fill="none" xmlns="http://www.w3.org/2000/svg">
<g clip-path="url(#clip0_275_428)">
<path fill-rule="evenodd" clip-rule="evenodd" d="M55.2651 9.34723V7.16879C55.2613 7.02652 55.3142 6.88858 55.412 6.78526C55.5099 6.68195 55.6448 6.62172 55.7871 6.61781H65.3639C65.4332 6.61517 65.5022 6.62621 65.5671 6.65031C65.6321 6.6744 65.6916 6.71107 65.7423 6.75822C65.7931 6.80537 65.834 6.86206 65.8628 6.92506C65.8916 6.98805 65.9077 7.05611 65.9101 7.12533C65.911 7.13718 65.911 7.14903 65.911 7.16045V9.02499C65.7947 9.53612 65.5494 10.0089 65.1984 10.3983L60.2278 17.5956C62.1138 17.4903 63.9929 17.9029 65.6708 18.7906C65.8213 18.8759 65.947 18.9988 66.0355 19.1474C66.1241 19.296 66.1724 19.465 66.1757 19.638V21.9608C66.1849 22.2466 65.9663 22.485 65.6871 22.4943C65.6131 22.4966 65.5396 22.4823 65.4719 22.4526C63.9182 21.632 62.1877 21.2032 60.4306 21.2032C58.6735 21.2032 56.943 21.632 55.3893 22.4526C55.0578 22.6308 54.7101 22.2664 54.7101 21.9442V19.7403C54.68 19.2187 54.8039 18.6998 55.0662 18.248L60.8078 9.87274H55.8367C55.5403 9.88723 55.2875 9.65235 55.2734 9.34811V9.33889L55.2651 9.34723ZM16.4154 22.4987C16.2803 22.4931 16.1519 22.4388 16.0538 22.3458C15.9557 22.2528 15.8947 22.1274 15.882 21.9929V6.61211C15.883 6.5376 15.8988 6.46404 15.9284 6.39566C15.958 6.32727 16.0008 6.2654 16.0544 6.21359C16.1079 6.16179 16.1712 6.12107 16.2405 6.09378C16.3099 6.06648 16.3839 6.05315 16.4584 6.05455H19.2704C19.4099 6.06025 19.5426 6.11647 19.6438 6.21274C19.745 6.30901 19.8078 6.43877 19.8204 6.57786V8.58421H19.8723C20.1221 7.73624 20.6476 6.99585 21.3657 6.48024C22.0838 5.96464 22.9533 5.70329 23.8366 5.73757C25.7201 5.73757 26.9063 6.63757 27.7492 8.58421C28.6391 6.2925 31.2232 5.15367 33.522 6.0405C34.26 6.32471 34.9091 6.8002 35.4027 7.41816C36.3572 8.7124 36.1592 10.5901 36.1592 12.2365V21.9499C36.1569 22.0243 36.14 22.0975 36.1094 22.1653C36.0788 22.2332 36.0352 22.2943 35.981 22.3453C35.9267 22.3962 35.863 22.436 35.7934 22.4623C35.7238 22.4887 35.6497 22.501 35.5753 22.4987H32.5649C32.422 22.4923 32.2869 22.4322 32.1864 22.3305C32.086 22.2287 32.0276 22.0928 32.0231 21.9499V13.7967C32.0679 12.8353 32.0394 11.8729 31.9371 10.9159C31.8789 10.5055 31.6602 10.1349 31.3291 9.88563C30.9979 9.63631 30.5814 9.52857 30.1709 9.58606L30.1656 9.58694C29.7759 9.59935 29.3982 9.72522 29.079 9.94911C28.7597 10.173 28.5127 10.4852 28.3682 10.8474C28.1165 11.809 28.0208 12.8048 28.0846 13.7967V21.9494C28.0835 22.0228 28.0679 22.0952 28.0387 22.1625C28.0096 22.2297 27.9674 22.2906 27.9147 22.3416C27.8619 22.3926 27.7997 22.4327 27.7314 22.4595C27.6632 22.4864 27.5903 22.4995 27.517 22.4982H24.4987C24.3558 22.4919 24.2207 22.4318 24.1202 22.33C24.0198 22.2283 23.9614 22.0923 23.9569 21.9494V13.7967C23.9569 12.0819 24.2405 9.55269 22.1082 9.55269C19.9754 9.55269 20.0272 12.0134 20.0272 13.7967V21.9494C20.0261 22.0228 20.0106 22.0952 19.9815 22.1625C19.9525 22.2298 19.9104 22.2908 19.8578 22.3419C19.8052 22.393 19.743 22.4332 19.6748 22.4602C19.6066 22.4873 19.5338 22.5006 19.4604 22.4995C19.4517 22.4995 19.4424 22.4995 19.4337 22.4987H16.4154ZM73.845 5.73494C78.3235 5.73494 80.7351 9.47806 80.7351 14.2388C80.7351 18.8486 78.0654 22.4995 73.845 22.4995C69.453 22.4995 67.0586 18.7481 67.0586 14.0878C67.0586 9.42757 69.453 5.73494 73.8195 5.73494H73.845ZM71.4703 13.6264C71.4703 15.4703 71.4703 19.4114 73.8397 19.4114C76.2092 19.4114 76.3136 16.2285 76.3136 14.292C76.365 12.9446 76.2127 11.5964 75.8606 10.2924C75.6674 9.39113 74.8157 8.7664 73.8656 8.82699C71.6183 8.82699 71.4703 11.7825 71.4703 13.6264ZM86.6663 22.464H83.8842C83.6076 22.4547 83.3863 22.215 83.3819 21.9178V6.55855C83.4109 6.26747 83.6436 6.04928 83.9162 6.05499H86.5065C86.7444 6.06903 86.9477 6.24464 87.0092 6.4905V8.8283H87.057C87.8538 6.73767 88.9382 5.73933 90.8673 5.73933C92.1769 5.67128 93.4202 6.35835 94.1275 7.53977C94.8528 8.76025 94.8528 10.825 94.8528 12.3098V22.0201C94.8159 22.3028 94.585 22.5101 94.3185 22.4982H91.5206C91.2673 22.4886 91.057 22.2884 91.0188 22.0201V13.7094C91.0188 12.0025 91.201 9.57947 89.2728 9.57947C88.5624 9.61899 87.9394 10.0997 87.6787 10.8079C87.329 11.7333 87.1769 12.7216 87.2322 13.7094V21.9521C87.2195 22.2668 86.9701 22.5127 86.6759 22.4991L86.6663 22.4982V22.464ZM50.5148 22.248C50.4192 22.3298 50.3006 22.3801 50.1753 22.3921C50.0499 22.404 49.924 22.377 49.8146 22.3147C49.1383 21.7714 48.5667 21.1094 48.1279 20.361C47.5378 21.0719 46.7896 21.6348 45.943 22.0046C45.0964 22.3745 44.175 22.5409 43.2525 22.4907C40.7224 22.4907 38.8245 20.9651 38.8245 17.9214C38.7714 15.8285 40.0279 13.9219 41.9789 13.1338C43.5813 12.438 45.8247 12.2953 47.5369 12.1197V11.7333C47.6311 11.006 47.5048 10.2671 47.1743 9.6124C46.9772 9.35678 46.7202 9.1535 46.4261 9.02045C46.132 8.8874 45.8097 8.82866 45.4876 8.84938C44.3615 8.75806 43.3425 9.51186 43.1089 10.6099C43.0936 10.7433 43.035 10.868 42.9421 10.965C42.8492 11.0619 42.727 11.1258 42.5944 11.1468L39.7355 10.8447C39.5986 10.817 39.4782 10.7361 39.4008 10.6199C39.3234 10.5036 39.2952 10.3614 39.3223 10.2244C39.98 6.77806 43.1177 5.73889 45.9345 5.73889C47.5394 5.68396 49.1117 6.201 50.3708 7.19777C51.8047 8.53064 51.6699 10.3083 51.6699 12.2285V16.7979C51.6844 17.8115 52.082 18.7821 52.7828 19.5146C52.8838 19.6176 52.9403 19.7561 52.9403 19.9003C52.9403 20.0445 52.8838 20.183 52.7828 20.286C52.1757 20.7891 51.0961 21.711 50.5144 22.2396L50.5148 22.248ZM47.6133 15.1678V14.5585C45.4788 14.5585 43.2349 14.9913 43.2349 17.3818C43.2349 18.5931 43.8904 19.4114 45.0253 19.4114C45.9033 19.3816 46.6922 18.8916 47.0755 18.1361C47.5417 17.2208 47.7287 16.1884 47.6133 15.1678ZM11.6564 22.2484C11.5606 22.3293 11.4424 22.3791 11.3176 22.3911C11.1928 22.4031 11.0673 22.3767 10.9579 22.3156C10.2858 21.769 9.71604 21.1075 9.27509 20.3619C8.688 21.071 7.94315 21.6328 7.10011 22.0025C6.25706 22.3723 5.3392 22.5396 4.41992 22.4912C1.93767 22.4916 0.00245533 20.966 0.00245533 17.9223C-0.0297347 16.8973 0.255251 15.8875 0.818489 15.0306C1.38173 14.1737 2.19575 13.5116 3.14938 13.1347C4.74831 12.4388 6.97767 12.2962 8.69426 12.1201V11.7342C8.78441 11.007 8.6586 10.2694 8.3325 9.61328C8.13408 9.36011 7.8775 9.15855 7.58454 9.02571C7.29159 8.89288 6.97091 8.83269 6.64972 8.85026C6.10917 8.80731 5.57142 8.96215 5.13647 9.28597C4.70153 9.6098 4.39899 10.0806 4.28514 10.6107C4.27016 10.7441 4.21184 10.8688 4.11913 10.9658C4.02642 11.0628 3.90444 11.1267 3.77192 11.1477L0.911236 10.8456C0.777604 10.814 0.661578 10.7315 0.587801 10.6156C0.514024 10.4998 0.488307 10.3598 0.516114 10.2253C1.17202 6.77806 4.30226 5.73889 7.11201 5.73889C8.71652 5.68241 10.2886 6.19965 11.5462 7.19777C12.9853 8.53108 12.8422 10.3087 12.8422 12.229V16.7984C12.8562 17.8117 13.253 18.7821 13.9529 19.515C14.1667 19.7214 14.1724 20.0607 13.9656 20.2737L13.9529 20.2864C13.3558 20.7895 12.2701 21.7119 11.6981 22.2401L11.6559 22.2484H11.6564ZM8.79304 14.5585C6.66113 14.5585 4.41158 14.9913 4.41158 17.3818C4.41158 18.5931 5.0745 19.4114 6.19928 19.4114C7.0725 19.3763 7.85572 18.8859 8.23899 18.1361C8.7101 17.2223 8.90274 16.1904 8.79304 15.1683V14.5585ZM38.5782 35.2927C29.3078 35.3445 20.3521 31.7344 13.4621 25.1648C12.9379 24.6727 13.4028 23.9922 14.0284 24.3772C21.7012 29.0081 30.3816 31.4368 39.2126 31.4236C45.7962 31.3898 52.3082 29.9814 58.3773 27.2779C59.2817 26.8573 60.0676 27.932 59.1465 28.6476C53.584 32.9817 45.5275 35.2927 38.5782 35.2927ZM61.3535 25.981C60.6299 25.0415 56.5655 25.5332 54.7396 25.7619C54.1798 25.8225 54.0942 25.3312 54.5934 24.98C57.8399 22.6633 63.1535 23.3302 63.7734 24.1024C64.3933 24.8751 63.6096 30.2984 60.5698 32.8785C60.0961 33.2824 59.6566 33.0629 59.8638 32.5448C60.5443 30.816 62.0765 26.9288 61.3535 25.981ZM154.991 19.9444C155.558 19.551 155.881 18.9092 155.849 18.2366C155.859 18.0105 155.82 17.7849 155.734 17.5755C155.648 17.3661 155.518 17.1779 155.352 17.024C154.803 16.5987 154.18 16.2797 153.515 16.0836L150.751 15.0932C148.356 14.2683 147.145 12.7835 147.145 10.7293C147.103 9.43855 147.714 8.20752 148.785 7.42869C150.026 6.55503 151.54 6.11601 153.077 6.18318C154.484 6.18318 155.88 6.4264 157.197 6.90099C157.409 6.95574 157.602 7.06697 157.755 7.22279C157.871 7.40586 157.925 7.61923 157.909 7.83303V8.6584C157.909 9.02938 157.773 9.21904 157.489 9.21904C157.234 9.20027 156.983 9.14756 156.742 9.0623C155.604 8.73334 154.425 8.56677 153.24 8.56752C151.163 8.56752 150.115 9.23572 150.115 10.5888C150.103 10.8274 150.143 11.0659 150.234 11.2871C150.324 11.5082 150.463 11.7065 150.639 11.8677C151.259 12.3188 151.95 12.6644 152.682 12.8906L155.257 13.8226C156.285 14.1741 157.213 14.7685 157.962 15.5555C158.553 16.267 158.858 17.1725 158.82 18.0965C158.872 19.465 158.232 20.7746 157.103 21.6109C155.77 22.5483 154.142 23.0136 152.494 22.932C150.819 22.9543 149.155 22.6572 147.592 22.0566C147.391 21.9863 147.209 21.8706 147.06 21.7185C146.951 21.5403 146.9 21.3328 146.914 21.1245V20.2508C146.914 19.8786 147.043 19.6889 147.3 19.6889C147.579 19.7175 147.853 19.7812 148.116 19.8786C149.557 20.317 151.056 20.5367 152.562 20.5305C153.414 20.5888 154.263 20.3812 154.991 19.9365V19.9444ZM140.684 6.82021C140.664 6.67159 140.703 6.52098 140.793 6.40129C140.884 6.2816 141.018 6.20255 141.166 6.18142C141.217 6.17484 141.268 6.17484 141.319 6.1823H143.182C143.256 6.17217 143.33 6.17663 143.402 6.19542C143.473 6.21421 143.541 6.24696 143.6 6.29179C143.658 6.33663 143.708 6.39266 143.745 6.45667C143.782 6.52068 143.806 6.59141 143.816 6.66479C143.824 6.7166 143.824 6.76928 143.817 6.82021V21.7971C143.862 22.1092 143.65 22.3986 143.344 22.4438C143.29 22.4523 143.236 22.4523 143.182 22.4438H141.82C141.649 22.4529 141.48 22.4084 141.336 22.3165C141.196 22.1917 141.11 22.0186 141.093 21.8322L140.876 20.7083C139.165 22.0993 137.04 22.8808 134.835 22.9293C134.198 22.974 133.558 22.8825 132.959 22.661C132.36 22.4394 131.814 22.0928 131.359 21.6443C130.508 20.6326 130.077 19.3327 130.156 18.0127V6.81977C130.136 6.67099 130.175 6.52032 130.266 6.40065C130.356 6.28098 130.491 6.20202 130.639 6.18098C130.69 6.17406 130.741 6.17436 130.791 6.18186H132.654C132.741 6.16969 132.829 6.17782 132.912 6.20563C132.995 6.23344 133.07 6.28015 133.131 6.34206C133.193 6.40397 133.239 6.47938 133.267 6.5623C133.294 6.64522 133.302 6.73337 133.289 6.81977V17.0258C133.216 17.9264 133.448 18.8255 133.95 19.5774C134.213 19.8741 134.542 20.1054 134.91 20.253C135.279 20.4006 135.676 20.4605 136.072 20.4278C137.717 20.382 139.312 19.8464 140.651 18.8894L140.684 6.81977V6.82021ZM123.681 22.4934C123.607 22.5039 123.532 22.4998 123.46 22.4813C123.388 22.4628 123.32 22.4303 123.261 22.3856C123.201 22.3409 123.151 22.2849 123.114 22.2209C123.076 22.1568 123.051 22.0859 123.041 22.0122C123.032 21.9578 123.032 21.9025 123.041 21.8471V11.4515C123.104 10.6126 122.891 9.7761 122.434 9.06977C122.198 8.80098 121.901 8.5916 121.569 8.45858C121.237 8.32556 120.878 8.27264 120.522 8.30411C118.856 8.34015 117.234 8.84104 115.838 9.75025C115.851 9.9083 115.851 10.0681 115.838 10.2266V21.8467C115.851 21.9341 115.843 22.0233 115.815 22.1072C115.788 22.1912 115.741 22.2675 115.679 22.3302C115.617 22.3929 115.541 22.4403 115.457 22.4686C115.373 22.4968 115.284 22.5051 115.197 22.4929H113.319C113.245 22.5035 113.17 22.4994 113.098 22.4809C113.026 22.4624 112.959 22.4299 112.899 22.3852C112.84 22.3405 112.79 22.2845 112.752 22.2204C112.714 22.1563 112.689 22.0854 112.679 22.0118C112.67 21.9573 112.67 21.902 112.679 21.8467V11.4515C112.74 10.6139 112.53 9.77889 112.081 9.06977C111.843 8.80216 111.547 8.5936 111.215 8.46068C110.883 8.32776 110.524 8.27415 110.168 8.30411C108.512 8.3149 106.894 8.80529 105.51 9.71601V21.8463C105.532 21.9954 105.494 22.1472 105.405 22.2684C105.315 22.3896 105.181 22.4702 105.032 22.4925C104.981 22.4999 104.929 22.5001 104.878 22.4929H102.991C102.904 22.504 102.816 22.4948 102.733 22.466C102.65 22.4372 102.575 22.3897 102.514 22.3271C102.453 22.2644 102.407 22.1885 102.38 22.1051C102.353 22.0218 102.346 21.9333 102.359 21.8467V6.86586C102.337 6.71923 102.374 6.56986 102.461 6.45036C102.549 6.33085 102.681 6.2509 102.827 6.22796C102.881 6.21943 102.937 6.21943 102.991 6.22796H104.406C104.578 6.21918 104.748 6.26352 104.895 6.35528C105.034 6.47733 105.121 6.64723 105.139 6.83206L105.324 7.86113C107.048 6.5594 109.13 5.81994 111.289 5.74328C113.268 5.74328 114.599 6.50016 115.307 8.02269C117.112 6.6058 119.324 5.80666 121.617 5.74328C122.864 5.66469 124.086 6.1182 124.987 6.99362C125.826 7.98401 126.249 9.26168 126.166 10.5576V21.8463C126.179 21.9336 126.171 22.0228 126.144 22.1067C126.116 22.1905 126.07 22.2669 126.008 22.3296C125.945 22.3923 125.869 22.4397 125.786 22.4679C125.702 22.4962 125.613 22.5046 125.526 22.4925H123.681V22.4934ZM172.506 10.1397C171.726 11.0348 171.336 12.4665 171.336 14.4342V14.8451C171.336 16.7659 171.737 18.2002 172.522 19.0387C173.012 19.5221 173.601 19.8933 174.249 20.1264C174.896 20.3596 175.586 20.4493 176.272 20.3891C177.235 20.376 178.191 20.2267 179.111 19.9444C179.267 19.8982 179.426 19.8673 179.588 19.8522C179.863 19.8522 179.997 20.0621 179.997 20.4813V21.3199C180.012 21.5297 179.969 21.7387 179.871 21.924C179.739 22.0877 179.562 22.2067 179.362 22.2686C178.221 22.7358 176.996 22.964 175.763 22.939C173.257 22.939 171.378 22.226 170.059 20.8009C168.739 19.3741 168.088 17.3107 168.088 14.6103C168.088 11.9094 168.764 9.85474 170.126 8.38664C170.875 7.63272 171.777 7.04689 172.77 6.66805C173.764 6.28921 174.827 6.12602 175.888 6.18933C177.028 6.19162 178.159 6.39615 179.228 6.79342C179.418 6.84962 179.588 6.95674 179.721 7.10338C179.829 7.29742 179.879 7.51957 179.863 7.74084V8.57938C179.863 8.99908 179.721 9.20894 179.454 9.20894C179.281 9.2005 179.109 9.16951 178.944 9.11674C178.093 8.8665 177.209 8.73918 176.322 8.73918C174.569 8.79801 173.299 9.2423 172.514 10.1397H172.506ZM164.369 7.06211C164.67 7.0182 164.95 7.22938 164.992 7.53318C165 7.58279 165.001 7.63372 164.994 7.68421V22.302C165.006 22.3872 164.999 22.4742 164.972 22.556C164.945 22.6378 164.9 22.7123 164.839 22.7735C164.778 22.8346 164.704 22.8808 164.623 22.9084C164.541 22.936 164.454 22.9442 164.369 22.9324H162.534C162.462 22.9416 162.389 22.9366 162.319 22.9175C162.249 22.8984 162.184 22.8657 162.126 22.8213C162.069 22.7768 162.021 22.7215 161.985 22.6585C161.949 22.5954 161.926 22.5259 161.917 22.4539C161.91 22.4035 161.91 22.3523 161.918 22.302V7.69255C161.905 7.60843 161.912 7.52256 161.939 7.44175C161.965 7.36095 162.01 7.28744 162.07 7.22705C162.13 7.16666 162.203 7.12107 162.284 7.09388C162.364 7.0667 162.45 7.05868 162.534 7.07045L164.369 7.06211ZM164.915 0.981179C165.616 1.80655 165.616 3.04108 164.915 3.86645C164.511 4.21648 163.994 4.40915 163.46 4.40915C162.925 4.40915 162.408 4.21648 162.004 3.86645C161.292 3.04635 161.292 1.80128 162.004 0.981179C162.408 0.63115 162.925 0.438477 163.46 0.438477C163.994 0.438477 164.511 0.63115 164.915 0.981179Z" fill="#34D1D9"/>
</g>
<defs>
<clipPath id="clip0_275_428">
<rect width="180" height="36" fill="white"/>
</clipPath>
</defs>
</svg>
