<svg width="93" height="24" viewBox="0 0 93 24" fill="none" xmlns="http://www.w3.org/2000/svg">
<path d="M39.1333 22.6405V7.90743H39.0242L33.131 22.6405H30.8392L24.9459 7.90743H24.8368V22.6405H22.1084V2.66899H25.6007L31.9305 18.6026H32.0396L38.3694 2.66899H41.9708V22.6405H39.1333ZM57.3587 22.6405H54.5212V20.1304H54.4121C53.6482 21.8766 52.1203 22.8588 49.9376 22.8588C46.7727 22.8588 44.9174 20.7852 44.9174 17.4021V8.01656H47.8641V16.8564C47.8641 19.0391 48.9554 20.2396 50.9198 20.2396C53.1025 20.2396 54.303 18.7117 54.303 16.4199V8.01656H57.2496L57.3587 22.6405ZM65.4346 7.79829C68.8178 7.79829 70.8913 9.65357 71.0005 12.3819H68.2721C68.0539 10.9632 67.0716 10.0901 65.4346 10.0901C63.7976 10.0901 62.7063 10.854 62.7063 12.0545C62.7063 12.9276 63.3611 13.5824 64.889 13.9098L67.1808 14.4555C70.1274 15.1103 71.2187 16.3108 71.2187 18.3843C71.2187 21.0035 68.8178 22.8588 65.4346 22.8588C61.8332 22.8588 59.6505 21.1126 59.4323 18.2752H62.3789C62.5972 19.803 63.6885 20.567 65.4346 20.567C67.1808 20.567 68.2721 19.803 68.2721 18.6026C68.2721 17.6204 67.7265 17.0747 66.1986 16.7473L63.9068 16.2016C61.1784 15.5468 59.8688 14.2372 59.8688 12.0545C59.8688 9.54444 62.0515 7.79829 65.4346 7.79829ZM73.4014 4.19687C73.4014 3.21466 74.1654 2.45072 75.1476 2.45072C76.1298 2.45072 76.8937 3.21466 76.8937 4.19687C76.8937 5.17907 76.1298 5.94301 75.1476 5.94301C74.1654 5.94301 73.4014 5.17907 73.4014 4.19687ZM73.6197 8.01656H76.5663V22.6405H73.6197V8.01656ZM89.0076 13.0367C88.6802 11.5089 87.5888 10.1992 85.6244 10.1992C83.3326 10.1992 81.8047 12.1637 81.8047 15.2194C81.8047 18.3843 83.3326 20.2396 85.6244 20.2396C87.4797 20.2396 88.571 19.2574 89.0076 17.5112H91.8451C91.5177 20.567 89.1167 22.7497 85.6244 22.7497C81.4773 22.7497 78.8581 19.9122 78.8581 15.2194C78.8581 10.6358 81.4773 7.68916 85.6244 7.68916C89.335 7.68916 91.5177 10.0901 91.8451 12.9276L89.0076 13.0367ZM13.0503 4.6334C12.2864 5.50648 11.0859 6.27041 9.88543 6.16128C9.66716 4.85167 10.322 3.54206 10.9768 2.77812C11.7407 1.79592 13.0503 1.14111 14.1417 1.14111C14.2508 2.34159 13.8143 3.6512 13.0503 4.6334ZM14.1417 6.37955C14.7965 6.37955 16.7609 6.59782 18.0705 8.56223C17.9613 8.67136 15.7787 9.98097 15.7787 12.7093C15.7787 15.9833 18.6161 17.0747 18.6161 17.0747C18.6161 17.1838 18.1796 18.6026 17.1974 20.1304C16.3243 21.4401 15.3421 22.7497 13.9234 22.7497C12.5046 22.7497 12.0681 21.8766 10.4311 21.8766C8.79409 21.8766 8.24842 22.7497 6.93881 22.7497C5.52007 22.7497 4.42873 21.3309 3.55566 20.0213C1.70038 17.293 0.281635 12.3819 2.24605 9.1079C3.11912 7.47089 4.86526 6.37955 6.61141 6.37955C8.03015 6.37955 9.33976 7.36175 10.1037 7.36175C10.8676 7.36175 12.3955 6.27041 14.1417 6.37955Z" fill="white"/>
</svg>
