<svg width="131" height="36" viewBox="0 0 131 36" fill="none" xmlns="http://www.w3.org/2000/svg">
<path fill-rule="evenodd" clip-rule="evenodd" d="M74.2518 22.9896H62.5251V8.77466H74.2518V12.6145H68.0555V14.2575H73.8819V17.3959H68.0555V19.1497H74.2518V22.9896ZM87.3099 22.9896H75.5835V8.77466H87.3099V12.6145H81.1143V14.2575H86.9402V17.3959H81.1143V19.1497H87.3099V22.9896ZM129.87 22.9896C129.071 20.816 127.954 18.4967 126.45 15.897C128.209 15.3824 129.26 14.276 129.26 12.5776C129.26 9.99311 126.874 8.77466 123.101 8.77466H115.332V22.9896H120.881V17.1096C122.114 19.182 123.022 21.1375 123.619 22.9896H129.87ZM120.881 15.1252V12.6145H122.805C123.619 12.6145 124.081 13.0576 124.081 13.8699C124.081 14.6821 123.619 15.1252 122.805 15.1252H120.881ZM114.001 22.9896H102.274V8.77466H114.001V12.6145H107.804V14.2575H113.631V17.3959H107.804V19.1497H114.001V22.9896ZM88.6422 12.6145H94.3675C91.9922 14.5544 90.0369 16.7516 88.531 19.1497V22.9896H101.127V19.1497H94.8311C96.2739 17.0547 98.29 14.9687 101.127 12.6145V8.77466H88.6422V12.6145ZM46.9883 8.77481H54.1279C58.5486 8.77481 61.6745 11.7101 61.6745 15.8822C61.6745 20.0544 58.5486 22.9896 54.1279 22.9896H46.9883V8.77481ZM52.5373 19.1498H53.832C55.2192 19.1498 55.9591 18.2268 55.9591 15.8822C55.9591 13.5377 55.2192 12.6147 53.832 12.6147H52.5373V19.1498Z" fill="white"/>
<path fill-rule="evenodd" clip-rule="evenodd" d="M31.3813 5.49235C31.715 3.56186 32.2046 2.3479 32.747 2.34558H32.7482C33.7597 2.34906 34.5796 6.55905 34.5796 11.7569C34.5796 16.9547 33.7585 21.1682 32.7459 21.1682C32.3308 21.1682 31.9478 20.4528 31.6393 19.2539C31.1519 23.6425 30.1405 26.6594 28.9697 26.6594C28.0637 26.6594 27.2506 24.8472 26.7048 21.9891C26.3321 27.4247 25.3941 31.281 24.2977 31.281C23.6097 31.281 22.9824 29.7529 22.518 27.2647C21.9595 32.4011 20.6694 36 19.1648 36C17.6603 36 16.3679 32.4022 15.8117 27.2647C15.3507 29.7529 14.7235 31.281 14.0319 31.281C12.9356 31.281 11.9998 27.4247 11.6249 21.9891C11.079 24.8472 10.2683 26.6594 9.36002 26.6594C8.19032 26.6594 7.17775 23.6437 6.69038 19.2539C6.3842 20.4563 5.99889 21.1682 5.58376 21.1682C4.57117 21.1682 3.75009 16.9547 3.75009 11.7569C3.75009 6.55905 4.57117 2.34558 5.58376 2.34558C6.12732 2.34558 6.61354 3.56301 6.9507 5.49235C7.49082 2.16355 8.36811 0 9.36002 0C10.5378 0 11.5584 3.05981 12.0412 7.50285C12.5136 4.26912 13.2303 2.20761 14.0331 2.20761C15.158 2.20761 16.1145 6.26223 16.4688 11.9181C17.1351 9.01823 18.0995 7.19907 19.1671 7.19907C20.2348 7.19907 21.1992 9.01943 21.8643 11.9181C22.2198 6.26223 23.175 2.20761 24.3 2.20761C25.1016 2.20761 25.8172 4.26912 26.292 7.50285C26.7736 3.05981 27.7942 0 28.9719 0C29.9604 0 30.8411 2.16471 31.3813 5.49235ZM1.12988 10.8313C1.12988 8.5077 1.59547 6.62356 2.16999 6.62356C2.74452 6.62356 3.21011 8.5077 3.21011 10.8313C3.21011 13.1548 2.74452 15.0389 2.16999 15.0389C1.59547 15.0389 1.12988 13.1548 1.12988 10.8313ZM35.1188 10.8313C35.1188 8.5077 35.5843 6.62356 36.1589 6.62356C36.7334 6.62356 37.199 8.5077 37.199 10.8313C37.199 13.1548 36.7334 15.0389 36.1589 15.0389C35.5843 15.0389 35.1188 13.1548 35.1188 10.8313Z" fill="#A238FF"/>
</svg>
