<svg width="141" height="30" viewBox="0 0 141 30" fill="none" xmlns="http://www.w3.org/2000/svg">
<g clip-path="url(#clip0_279_1165)">
<path d="M29.4407 0.740967H1.12793V29.2591H29.4407V0.740967Z" fill="url(#paint0_linear_279_1165)"/>
<path d="M35.9824 8.46693C35.9824 7.78522 36.5464 7.21713 37.2232 7.21713C37.9 7.21713 38.3512 7.78522 38.3512 8.46693C38.3512 9.03502 37.9 9.60311 37.2232 9.60311C36.5464 9.60311 35.9824 9.03502 35.9824 8.46693ZM36.0952 11.0801H38.2384V21.4194H36.0952V11.0801ZM43.7656 21.4194V9.14864H39.4792V7.33075H50.1952V9.26226H45.9088V21.533L43.7656 21.4194ZM58.9936 21.4194H56.9632V19.6015C56.3992 20.8513 55.384 21.533 53.8048 21.533C51.5488 21.533 50.1952 20.056 50.1952 17.7836V11.0801H52.3384V17.2155C52.3384 18.8062 53.128 19.6015 54.4816 19.6015C55.948 19.6015 56.9632 18.5789 56.9632 16.9883V11.0801H59.1064L58.9936 21.4194ZM61.1368 11.0801H63.1672V12.7844C63.7312 11.5346 64.8592 10.9665 66.3256 10.9665C68.5816 10.9665 69.8224 12.4436 69.8224 14.8295V21.4194H67.6792V15.284C67.6792 13.6934 67.0024 12.898 65.536 12.898C64.0696 12.898 63.1672 13.9206 63.1672 15.5113V21.4194H61.024L61.1368 11.0801ZM80.6512 18.3517C80.3128 20.1696 78.508 21.533 76.252 21.533C73.3192 21.533 71.4016 19.4879 71.4016 16.3066C71.4016 13.1253 73.2064 10.9665 76.1392 10.9665C78.9592 10.9665 80.764 12.898 80.764 16.0793V16.7611H73.5448V16.8747C73.5448 18.5789 74.6728 19.8287 76.252 19.8287C77.38 19.8287 78.2824 19.2606 78.6208 18.3517H80.6512ZM73.5448 15.284H78.6208C78.6208 13.6934 77.6056 12.6708 76.1392 12.6708C74.7856 12.6708 73.6576 13.807 73.5448 15.284ZM86.1784 10.9665C88.4344 10.9665 90.0136 12.2163 90.1264 14.0342H88.2088C88.096 13.1253 87.3064 12.5572 86.1784 12.5572C85.0504 12.5572 84.2608 13.1253 84.2608 13.9206C84.2608 14.4887 84.712 14.9432 85.84 15.1704L87.532 15.6249C89.5624 16.0793 90.352 16.8747 90.352 18.3517C90.352 20.1696 88.66 21.533 86.0656 21.533C83.6968 21.533 82.0048 20.2832 81.892 18.4653H83.9224C84.0352 19.4879 84.8248 19.9424 86.1784 19.9424C87.4192 19.9424 88.2088 19.3743 88.2088 18.5789C88.2088 17.8972 87.8704 17.5564 86.7424 17.3291L84.9376 16.8747C83.1328 16.4202 82.1176 15.5113 82.1176 14.0342C82.2304 12.2163 83.8096 10.9665 86.1784 10.9665ZM97.7968 17.4428C97.9096 18.8062 99.2632 19.7151 101.181 19.7151C102.986 19.7151 104.226 18.8062 104.226 17.5564C104.226 16.4202 103.437 15.8521 101.632 15.3976L99.8272 14.9432C97.2328 14.2615 96.1048 13.1253 96.1048 11.1938C96.1048 8.80779 98.248 7.10352 101.181 7.10352C104.114 7.10352 106.144 8.80779 106.257 11.1938H104.114C104.001 9.83035 102.873 8.9214 101.181 8.9214C99.4888 8.9214 98.3608 9.83035 98.3608 11.0801C98.3608 12.1027 99.1504 12.6708 100.955 13.1253L102.534 13.4661C105.354 14.1478 106.595 15.284 106.595 17.3291C106.595 19.9424 104.452 21.6466 101.181 21.6466C98.0224 21.6466 95.992 20.056 95.8792 17.4428H97.7968ZM110.882 8.69417V11.0801H112.799V12.7844H110.882V18.4653C110.882 19.3743 111.22 19.7151 112.122 19.7151C112.348 19.7151 112.686 19.7151 112.799 19.7151V21.4194C112.574 21.533 112.122 21.533 111.671 21.533C109.641 21.533 108.851 20.7377 108.851 18.8062V12.898H107.385V11.0801H108.851V8.69417H110.882ZM113.589 16.3066C113.589 13.1253 115.506 11.0801 118.439 11.0801C121.372 11.0801 123.29 13.1253 123.29 16.3066C123.29 19.6015 121.372 21.533 118.439 21.533C115.506 21.533 113.589 19.4879 113.589 16.3066ZM121.146 16.3066C121.146 14.0342 120.131 12.7844 118.439 12.7844C116.747 12.7844 115.732 14.1478 115.732 16.3066C115.732 18.5789 116.747 19.8287 118.439 19.8287C120.131 19.8287 121.146 18.4653 121.146 16.3066ZM124.982 11.0801H127.012V12.7844C127.35 11.6482 128.253 10.9665 129.494 10.9665C129.832 10.9665 130.058 10.9665 130.17 11.0801V13.0117C130.058 12.898 129.606 12.898 129.268 12.898C127.914 12.898 127.125 13.807 127.125 15.284V21.4194H124.982V11.0801ZM139.758 18.3517C139.42 20.1696 137.615 21.533 135.359 21.533C132.426 21.533 130.509 19.4879 130.509 16.3066C130.509 13.1253 132.314 10.9665 135.246 10.9665C138.066 10.9665 139.871 12.898 139.871 16.0793V16.7611H132.652V16.8747C132.652 18.5789 133.78 19.8287 135.359 19.8287C136.487 19.8287 137.39 19.2606 137.728 18.3517H139.758ZM132.652 15.284H137.728C137.728 13.6934 136.713 12.6708 135.246 12.6708C133.893 12.6708 132.765 13.807 132.652 15.284Z" fill="white"/>
<path d="M21.8827 16.8745H15.2275V24.4869H21.8827V16.8745Z" fill="url(#paint1_radial_279_1165)"/>
<path d="M12.5205 11.6482H4.7373V16.8746H12.5205V11.6482Z" fill="url(#paint2_radial_279_1165)"/>
<path d="M15.3407 16.8745H8.68555V24.4869H15.3407V16.8745Z" fill="url(#paint3_radial_279_1165)"/>
<path d="M25.7178 11.6482H17.9346V16.8746H25.7178V11.6482Z" fill="url(#paint4_radial_279_1165)"/>
<path d="M12.5201 11.6482L10.8281 16.8746L12.5201 18.0108L15.2273 20.0559L19.6265 16.8746L17.9345 11.6482H12.5201Z" fill="white"/>
<path d="M17.9349 4.26318H12.5205V11.5347H17.9349V4.26318Z" fill="url(#paint5_radial_279_1165)"/>
</g>
<defs>
<linearGradient id="paint0_linear_279_1165" x1="15.2728" y1="0.71731" x2="15.2728" y2="29.2681" gradientUnits="userSpaceOnUse">
<stop stop-color="#EF4DB7"/>
<stop offset="1" stop-color="#C643FD"/>
</linearGradient>
<radialGradient id="paint1_radial_279_1165" cx="0" cy="0" r="1" gradientUnits="userSpaceOnUse" gradientTransform="translate(1.73071 20.0562) scale(0.0293906 0.0296038)">
<stop stop-color="#F9E3FB"/>
<stop offset="0.7459" stop-color="#F9E3FB"/>
<stop offset="0.8097" stop-color="#F8DEFB"/>
<stop offset="0.8826" stop-color="#F3D0FA"/>
<stop offset="0.9599" stop-color="#ECBAF9"/>
<stop offset="0.981" stop-color="#EAB2F9"/>
<stop offset="1" stop-color="#EAB2F9"/>
</radialGradient>
<radialGradient id="paint2_radial_279_1165" cx="0" cy="0" r="1" gradientUnits="userSpaceOnUse" gradientTransform="translate(-8.74983 0.688001) scale(0.0296185 0.0298333)">
<stop stop-color="#FAE1F8"/>
<stop offset="0.6" stop-color="#FAE1F8"/>
<stop offset="0.85" stop-color="#F7D6F7"/>
<stop offset="1" stop-color="#F7D6F7"/>
</radialGradient>
<radialGradient id="paint3_radial_279_1165" cx="0" cy="0" r="1" gradientUnits="userSpaceOnUse" gradientTransform="translate(23.4958 31.0615) scale(0.0293906 0.0296038)">
<stop stop-color="#FAE9FC"/>
<stop offset="0.669" stop-color="#FAE9FC"/>
<stop offset="0.8118" stop-color="#F8DEFA"/>
<stop offset="0.91" stop-color="#F6D4F8"/>
<stop offset="1" stop-color="#F6D4F8"/>
</radialGradient>
<radialGradient id="paint4_radial_279_1165" cx="0" cy="0" r="1" gradientUnits="userSpaceOnUse" gradientTransform="translate(23.4936 31.0605) scale(0.0296185 0.0298333)">
<stop stop-color="#FAE9FB"/>
<stop offset="0.68" stop-color="#FAE9FB"/>
<stop offset="0.8132" stop-color="#F8DEF8"/>
<stop offset="0.98" stop-color="#F5CAF2"/>
<stop offset="1" stop-color="#F5CAF2"/>
</radialGradient>
<radialGradient id="paint5_radial_279_1165" cx="0" cy="0" r="1" gradientUnits="userSpaceOnUse" gradientTransform="translate(1.7305 20.0551) scale(0.0295339 0.029748)">
<stop stop-color="#FBE3F8"/>
<stop offset="0.745" stop-color="#FBE3F8"/>
<stop offset="0.8082" stop-color="#FADEF6"/>
<stop offset="0.8798" stop-color="#F9D1F0"/>
<stop offset="0.9554" stop-color="#F6BAE7"/>
<stop offset="0.98" stop-color="#F5B1E3"/>
<stop offset="1" stop-color="#F5B1E3"/>
</radialGradient>
<clipPath id="clip0_279_1165">
<rect width="141" height="28.9726" fill="white" transform="translate(0 0.513672)"/>
</clipPath>
</defs>
</svg>
