<svg width="148" height="45" viewBox="0 0 148 45" fill="none" xmlns="http://www.w3.org/2000/svg">
<path d="M22.1163 0C9.90209 0 0 10.0738 0 22.5001C0 34.927 9.90209 45 22.1163 45C34.3319 45 44.233 34.927 44.233 22.5001C44.233 10.0746 34.3322 0 22.1163 0ZM32.2588 32.4516C31.8626 33.1126 31.0122 33.3222 30.3625 32.9165C25.1698 29.6896 18.6329 28.9588 10.9344 30.7482C10.1926 30.9202 9.45312 30.4473 9.2841 29.6923C9.11428 28.9373 9.57724 28.1849 10.3209 28.013C18.7457 26.0548 25.9722 26.898 31.8019 30.5225C32.4516 30.9282 32.6576 31.7907 32.2588 32.4516ZM34.9658 26.3251C34.4666 27.1505 33.4049 27.4111 32.5942 26.9033C26.6493 23.1858 17.5873 22.1092 10.5557 24.2807C9.6438 24.5609 8.68063 24.0381 8.40386 23.1119C8.1292 22.1842 8.6434 21.2062 9.55374 20.924C17.5857 18.4446 27.571 19.6456 34.398 23.9137C35.2087 24.4215 35.4649 25.5013 34.9658 26.3251ZM35.1982 19.9455C28.0702 15.6382 16.3099 15.2422 9.50435 17.3435C8.41152 17.6807 7.25582 17.0531 6.92465 15.9413C6.59347 14.8289 7.20987 13.654 8.3035 13.316C16.1158 10.9032 29.1028 11.3694 37.3094 16.3258C38.2945 16.9193 38.6167 18.2109 38.033 19.2096C37.452 20.2096 36.178 20.5393 35.1982 19.9455ZM60.1713 20.7709C56.3524 19.8445 55.6737 19.1942 55.6737 17.828C55.6737 16.5372 56.8674 15.6686 58.6448 15.6686C60.3667 15.6686 62.0728 16.3282 63.8634 17.6861C63.9162 17.7272 63.9848 17.7436 64.0509 17.7329C64.1195 17.7227 64.1776 17.6853 64.2172 17.6292L66.0818 14.9552C66.1584 14.8451 66.1372 14.6933 66.0342 14.6092C63.903 12.87 61.505 12.0244 58.7002 12.0244C54.5777 12.0244 51.6964 14.5417 51.6964 18.1434C51.6964 22.0058 54.1815 23.3734 58.4758 24.429C62.1282 25.2853 62.7462 26.0027 62.7462 27.2849C62.7462 28.7062 61.4997 29.5902 59.4925 29.5902C57.2635 29.5902 55.4439 28.8244 53.4104 27.035C53.3602 26.9893 53.2915 26.9705 53.2281 26.9732C53.1595 26.9786 53.0987 27.0108 53.0565 27.0618L50.9648 29.5929C50.8777 29.7003 50.8882 29.8562 50.9886 29.9475C53.3549 32.097 56.2653 33.2308 59.408 33.2308C63.8501 33.2308 66.7209 30.7616 66.7209 26.9383C66.7288 23.7122 64.8299 21.9254 60.1792 20.7744L60.1713 20.7709ZM76.7725 16.9394C74.8472 16.9394 73.2679 17.7111 71.9632 19.2923V17.5126C71.9632 17.372 71.8523 17.2576 71.715 17.2576H68.2949C68.1576 17.2576 68.0467 17.372 68.0467 17.5126V37.288C68.0467 37.4277 68.1576 37.5432 68.2949 37.5432H71.715C71.8523 37.5432 71.9632 37.4277 71.9632 37.288V31.0464C73.2679 32.5323 74.8472 33.2604 76.7725 33.2604C80.351 33.2604 83.9744 30.458 83.9744 25.1007C83.9797 19.7424 80.3563 16.9392 76.7751 16.9392L76.7725 16.9394ZM79.9971 25.1007C79.9971 27.8276 78.3465 29.7326 75.9802 29.7326C73.6429 29.7326 71.8787 27.7416 71.8787 25.1007C71.8787 22.4596 73.6429 20.4692 75.9802 20.4692C78.3069 20.4689 79.9971 22.4166 79.9971 25.1007ZM93.2574 16.9394C88.6489 16.9394 85.0387 20.5495 85.0387 25.159C85.0387 29.7191 88.6252 33.2899 93.202 33.2899C97.8263 33.2899 101.447 29.6923 101.447 25.1007C101.447 20.5248 97.8501 16.9394 93.2574 16.9394ZM93.2574 29.7594C90.8066 29.7594 88.9579 27.7551 88.9579 25.0994C88.9579 22.4316 90.7432 20.4957 93.202 20.4957C95.6687 20.4957 97.5279 22.4993 97.5279 25.1577C97.5279 27.8249 95.732 29.7594 93.2574 29.7594ZM111.287 17.2576H107.524V13.3439C107.524 13.2037 107.413 13.0892 107.276 13.0892H103.856C103.718 13.0892 103.605 13.2037 103.605 13.3439V17.2576H101.962C101.825 17.2576 101.714 17.372 101.714 17.5126V20.5022C101.714 20.6425 101.825 20.7572 101.962 20.7572H103.605V28.4939C103.605 31.6187 105.134 33.204 108.153 33.204C109.378 33.204 110.395 32.946 111.353 32.3925C111.433 32.3495 111.48 32.2636 111.48 32.1722V29.3242C111.48 29.2382 111.435 29.1549 111.361 29.1092C111.287 29.0609 111.195 29.0582 111.118 29.0985C110.461 29.4343 109.824 29.5902 109.111 29.5902C108.015 29.5902 107.524 29.0824 107.524 27.9485V20.7585H111.287C111.425 20.7585 111.536 20.6441 111.536 20.5035V17.5142C111.541 17.3736 111.43 17.2592 111.29 17.2592L111.287 17.2576ZM124.397 17.2729V16.7922C124.397 15.3781 124.931 14.7475 126.124 14.7475C126.837 14.7475 127.411 14.8915 128.052 15.1092C128.132 15.1344 128.213 15.1218 128.277 15.0737C128.343 15.0256 128.38 14.9485 128.38 14.8668V11.9355C128.38 11.8234 128.311 11.7243 128.203 11.6912C127.527 11.4862 126.661 11.2759 125.361 11.2759C122.205 11.2759 120.533 13.0852 120.533 16.5063V17.2425H118.891C118.753 17.2425 118.64 17.357 118.64 17.4972V20.5022C118.64 20.6425 118.753 20.7572 118.891 20.7572H120.533V32.6881C120.533 32.8305 120.647 32.9433 120.784 32.9433H124.202C124.342 32.9433 124.453 32.8305 124.453 32.6881V20.758H127.646L132.537 32.6881C131.982 33.9402 131.435 34.19 130.691 34.19C130.089 34.19 129.452 34.0073 128.805 33.6446C128.744 33.6124 128.67 33.607 128.607 33.6258C128.541 33.65 128.485 33.6983 128.459 33.7628L127.3 36.3503C127.244 36.4739 127.292 36.6163 127.408 36.6807C128.618 37.3471 129.708 37.6319 131.058 37.6319C133.583 37.6319 134.98 36.4335 136.208 33.2147L142.139 17.6211C142.171 17.5426 142.16 17.454 142.113 17.3844C142.068 17.3153 141.991 17.2737 141.91 17.2737H138.35C138.241 17.2737 138.146 17.3427 138.112 17.4446L134.465 28.0399L130.471 17.4376C130.435 17.339 130.342 17.2737 130.239 17.2737L124.397 17.2729ZM116.796 17.2576H113.376C113.239 17.2576 113.126 17.372 113.126 17.5126V32.6881C113.126 32.8305 113.239 32.9433 113.376 32.9433H116.796C116.934 32.9433 117.047 32.8305 117.047 32.6881V17.5136C117.047 17.3731 116.936 17.2576 116.796 17.2576ZM115.106 10.3473C113.751 10.3473 112.653 11.4629 112.653 12.8409C112.653 14.2198 113.751 15.3367 115.106 15.3367C116.461 15.3367 117.557 14.2198 117.557 12.8409C117.557 11.4631 116.458 10.3473 115.106 10.3473ZM145.06 22.1371C143.708 22.1371 142.654 21.0315 142.654 19.6889C142.654 18.3463 143.721 17.228 145.073 17.228C146.426 17.228 147.479 18.3334 147.479 19.6749C147.479 21.0175 146.412 22.1371 145.06 22.1371ZM145.073 17.4714C143.84 17.4714 142.908 18.4683 142.908 19.6889C142.908 20.909 143.835 21.8924 145.06 21.8924C146.294 21.8924 147.226 20.8964 147.226 19.6749C147.226 18.4548 146.299 17.4714 145.073 17.4714ZM145.607 19.9267L146.288 20.8961H145.713L145.1 20.0067H144.574V20.8961H144.094V18.3264H145.219C145.808 18.3264 146.193 18.6319 146.193 19.1462C146.196 19.5674 145.956 19.8248 145.61 19.9267H145.607ZM145.2 18.7673H144.574V19.5801H145.2C145.512 19.5801 145.699 19.4245 145.699 19.1733C145.699 18.9089 145.512 18.7673 145.2 18.7673Z" fill="#62CD5D"/>
</svg>
