<svg width="129" height="18" viewBox="0 0 129 18" fill="none" xmlns="http://www.w3.org/2000/svg">
<g clip-path="url(#clip0_279_1140)">
<path d="M47.2557 16.9988H44.004V5.52678H39.7988V2.75421H51.4609V5.52678H47.2557V16.9988Z" fill="white"/>
<path d="M64.4605 16.9986H61.1895V2.75415H64.4605V16.9986Z" fill="white"/>
<path d="M122.178 14.1879H127.835V16.9993H118.908V2.7547H122.178V14.1879Z" fill="white"/>
<mask id="mask0_279_1140" style="mask-type:luminance" maskUnits="userSpaceOnUse" x="-90" y="-249" width="544" height="699">
<path d="M-89.124 449.45H453.255V-248.762H-89.124V449.45Z" fill="white"/>
</mask>
<g mask="url(#mask0_279_1140)">
<path d="M75.3496 2.75152H80.6484C84.5577 2.75152 88.4474 4.81089 88.4474 9.83502C88.4474 14.5709 84.6348 16.9961 80.8416 16.9961H75.3496V2.75152ZM78.5232 14.2041H80.5518C83.2806 14.2041 85.0991 12.5106 85.0991 9.81562C85.0991 7.25552 83.2611 5.52409 80.6289 5.52409H78.5232V14.2041Z" fill="white"/>
</g>
<path d="M106.597 16.9988H110.193L104.293 2.75421H100.916L94.96 16.9988H98.458L99.5135 14.1883H105.551L106.597 16.9988ZM100.39 11.6573L102.547 6.08658L104.684 11.6573H100.39Z" fill="white"/>
<path d="M17.9308 4.82988L13.7398 8.99976L9.54785 4.82988L13.7398 0.661772L17.9308 4.82988Z" fill="white"/>
<path d="M17.9308 13.169L13.7398 17.3389L9.54785 13.169L13.7398 8.99912L17.9308 13.169Z" fill="white"/>
<path d="M9.54799 4.83013L5.35607 9L1.16504 4.83013L5.35607 0.661136L9.54799 4.83013Z" fill="white"/>
<path d="M26.3126 4.83013L22.1216 9L17.9297 4.83013L22.1216 0.661136L26.3126 4.83013Z" fill="white"/>
</g>
<defs>
<clipPath id="clip0_279_1140">
<rect width="128" height="18" fill="white" transform="translate(0.5)"/>
</clipPath>
</defs>
</svg>
