<svg width="130" height="29" viewBox="0 0 130 29" fill="none" xmlns="http://www.w3.org/2000/svg">
<g clip-path="url(#clip0_275_356)">
<path d="M40.597 4.48262C40.3589 3.61614 39.8944 2.82621 39.2498 2.19151C38.6051 1.55682 37.8028 1.0995 36.9228 0.865122C33.701 0.00012207 20.7355 0.00012207 20.7355 0.00012207C20.7355 0.00012207 7.7695 0.0263721 4.54819 0.891372C3.66821 1.12579 2.86596 1.58312 2.22134 2.21782C1.57673 2.85251 1.11225 3.64242 0.874171 4.50887C-0.100321 10.1451 -0.478387 18.7329 0.900832 24.1434C1.13891 25.0098 1.60339 25.7997 2.248 26.4344C2.89262 27.0691 3.69487 27.5265 4.57485 27.7609C7.79642 28.6259 20.7621 28.6259 20.7621 28.6259C20.7621 28.6259 33.7279 28.6259 36.9494 27.7609C37.8294 27.5265 38.6317 27.0691 39.2763 26.4344C39.9209 25.7997 40.3854 25.0098 40.6235 24.1434C41.651 18.4994 41.9679 9.91687 40.5968 4.48287" fill="#FF0000"/>
<path d="M16.6084 20.4479L27.365 14.3136L16.6084 8.17896V20.4479Z" fill="white"/>
<path d="M124.727 8.31019C126.138 8.31019 127.203 8.57219 127.948 9.07019C128.694 9.56836 129.226 10.3549 129.546 11.4297C129.865 12.5044 129.998 13.9722 129.998 15.8597V18.9269H123.156V19.8704L123.263 22.4657C123.342 23.0424 123.476 23.4619 123.688 23.7239C123.902 23.9862 124.248 24.1172 124.7 24.1172C125.313 24.1172 125.739 23.8814 125.952 23.4097C126.191 22.9377 126.298 22.1512 126.324 21.0764L129.865 21.2862C129.892 21.4434 129.892 21.6532 129.892 21.9152C129.892 23.5667 129.439 24.7989 128.507 25.6114C127.576 26.4239 126.298 26.8434 124.62 26.8434C122.597 26.8434 121.186 26.2144 120.387 24.9824C119.589 23.7502 119.163 21.8102 119.163 19.2152V16.0432C119.253 11.5869 120.049 8.32319 124.727 8.31019ZM75.4996 8.65094V21.7842C75.4996 22.5707 75.5793 23.1474 75.7657 23.4882C76.1438 24.2169 77.1236 24.0307 77.656 23.6717C77.9633 23.467 78.2111 23.187 78.3748 22.8592V8.65069H82.4483V26.5549H79.2534L78.9073 24.3529H78.8276C77.949 26.0044 76.6442 26.8432 74.9138 26.8432C72.2504 26.8367 71.5986 24.9472 71.4435 23.0282L71.4333 22.8929C71.4141 22.6023 71.4028 22.3112 71.3995 22.0199V8.65094H75.4996ZM96.5058 8.65094V21.7842C96.5058 22.5707 96.5855 23.1474 96.7719 23.4882C97.1502 24.2169 98.1298 24.0307 98.6622 23.6717C98.9695 23.467 99.2173 23.187 99.381 22.8592V8.65069H103.454V26.5549H100.26L99.9135 24.3529H99.8337C98.9552 26.0044 97.6504 26.8432 95.92 26.8432C93.2565 26.8367 92.6048 24.9472 92.4496 23.0282L92.4395 22.8929C92.4203 22.6023 92.409 22.3112 92.4057 22.0199V8.65094H96.5058ZM63.6785 8.31019C65.0097 8.31019 66.1013 8.57219 66.9001 9.12269C67.6986 9.67319 68.311 10.5122 68.6838 11.6654C69.0565 12.8189 69.2429 14.3654 69.2429 16.2792V18.8742C69.2429 20.7879 69.0565 22.3084 68.6838 23.4617C68.311 24.6154 67.7253 25.4542 66.9001 26.0047C66.0749 26.5289 64.9564 26.8172 63.5721 26.8172C62.1342 26.8434 61.016 26.5552 60.1908 26.0309C59.3656 25.4804 58.7796 24.6414 58.4338 23.4882C58.0875 22.3347 57.9278 20.8142 57.9278 18.9007V16.3052C57.9278 14.3914 58.1141 12.8187 58.5135 11.6652C58.9129 10.4857 59.5251 9.64669 60.3772 9.12269C61.2291 8.59819 62.3206 8.30994 63.6785 8.30994M109.844 1.12744V10.5644H109.871C110.244 9.88294 110.723 9.33244 111.389 8.91294C112.01 8.50158 112.743 8.28254 113.492 8.28394C114.477 8.28394 115.222 8.54594 115.781 9.04394C116.34 9.56844 116.74 10.3809 116.979 11.5082C117.212 12.6002 117.344 14.1104 117.352 16.0149L117.352 16.2007V19.0317C117.352 21.6792 117.006 23.6454 116.367 24.9037C115.702 26.1619 114.69 26.7912 113.305 26.7912C112.533 26.7912 111.841 26.6077 111.202 26.2669C110.637 25.9425 110.169 25.4777 109.844 24.9189L109.791 24.8249H109.711L109.285 26.5289H105.904V1.12769L109.844 1.12744ZM93.5503 2.04494V5.29519H89.5036V26.5549H85.5101V5.29544H81.4367V2.04519L93.5503 2.04494ZM49.6476 2.04494L49.6502 2.05494C49.689 2.22519 50.2273 4.58144 50.8194 7.32669L50.8661 7.54419L50.9367 7.87294L50.9839 8.09369L51.0076 8.20444L51.0548 8.42644L51.0784 8.53769L51.1254 8.76044L51.1939 9.08619C51.5938 10.9872 51.9754 12.8937 52.2037 14.2607H52.3104C52.529 13.0344 52.8466 11.4652 53.1853 9.86294L53.2742 9.44444C53.3187 9.23478 53.3636 9.02544 53.4088 8.81644L53.4783 8.49219C53.9383 6.3689 54.412 4.24852 54.8994 2.13119L54.9071 2.09744L54.9192 2.04494H58.9927L54.2802 18.5862V26.5289H50.2601V18.6122H50.2334L45.5742 2.04469L49.6476 2.04494ZM63.5985 11.0887C63.0394 11.0887 62.6667 11.3772 62.4272 11.9802C62.1878 12.5832 62.0812 13.5004 62.0812 14.7852V20.3687C62.0812 21.6794 62.1876 22.6492 62.4006 23.2262C62.6137 23.8029 63.013 24.0912 63.5985 24.0912C64.1576 24.0912 64.557 23.8029 64.7967 23.2262C65.0364 22.6492 65.1428 21.6794 65.1428 20.3687V14.7849C65.1428 13.5004 65.0361 12.5567 64.7967 11.9799C64.557 11.3772 64.1576 11.0887 63.5985 11.0887ZM110.563 11.6132C110.239 11.9082 110.008 12.2719 109.87 12.7267L109.844 12.8189V22.9899C110.174 23.5404 110.643 23.9074 111.468 23.9337C111.894 23.9337 112.24 23.7764 112.507 23.4619C112.773 23.1474 112.959 22.6231 113.066 21.8889C113.168 21.1844 113.221 20.2141 113.225 18.9779V16.4889C113.225 15.0734 113.172 13.9987 113.092 13.2384C112.986 12.4782 112.853 11.9277 112.613 11.6132C112.15 10.9577 111.149 10.9657 110.563 11.6132ZM124.647 11.0102C124.194 11.0364 123.875 11.1674 123.688 11.4034C123.476 11.6654 123.342 12.0587 123.263 12.6354C123.184 13.2004 123.157 15.1754 123.156 15.2544V16.5414H126.138V15.4064V15.4282C126.136 15.8249 126.128 15.1979 126.109 14.4282L126.107 14.3247C126.09 13.6482 126.066 12.8939 126.032 12.6354C125.952 12.0324 125.818 11.6129 125.605 11.3772C125.392 11.1412 125.073 11.0102 124.647 11.0102" fill="#E0E0E0"/>
</g>
<defs>
<clipPath id="clip0_275_356">
<rect width="130" height="29" fill="white"/>
</clipPath>
</defs>
</svg>
